# xmcd
#
# Track frame offsets:
#	150
#	15718
#	32940
#	50425
#	71610
#	85010
#	103735
#	114528
#	136195
#	152683
#	174028
#	188908
#	204353
#
# Disc length: 2946 seconds
#
# Revision: 1
# Processed by: cddbd v1.4PL0 Copyright (c) Steve Scherf et al.
# Submitted via: audiograbber 1.81.03
#
DISCID=a30b800d
DTITLE=Mark Hummel - Married To The Blues
DYEAR=1996
DGENRE=Blues
TTITLE0=They Don't Want Me To Rock
TTITLE1=I'm Gone
TTITLE2=Find Some Boogie
TTITLE3=Bluesman
TTITLE4=Rock And Roll Baby
TTITLE5=Jungle Scotch Plaid
TTITLE6=No Buts No Maybes
TTITLE7=Can't Judge Nobody
TTITLE8=Can't Live With 'Em
TTITLE9=High Steppin
TTITLE10=Married To The Blues
TTITLE11=I Got Eyes
TTITLE12=Trial By Fire
EXTD=
EXTT0=
EXTT1=
EXTT2=
EXTT3=
EXTT4=
EXTT5=
EXTT6=
EXTT7=
EXTT8=
EXTT9=
EXTT10=
EXTT11=
EXTT12=
PLAYORDER=
